<svg xmlns="http://www.w3.org/2000/svg" xmlns:xlink="http://www.w3.org/1999/xlink" width="2000" zoomAndPan="magnify" viewBox="0 0 1500 1499.999933" height="2000" preserveAspectRatio="xMidYMid meet" version="1.0"><defs><g/><clipPath id="1ebaeea998"><path d="M 594.863281 433.25 L 905.363281 433.25 L 905.363281 743.75 L 594.863281 743.75 Z M 594.863281 433.25 " clip-rule="nonzero"/></clipPath><clipPath id="c0aad2b359"><rect x="0" width="439" y="0" height="289"/></clipPath><clipPath id="5a18d44f07"><rect x="0" width="423" y="0" height="122"/></clipPath></defs><g clip-path="url(#1ebaeea998)"><path fill="#0a0a0a" d="M 777.652344 616.074219 L 777.652344 560.6875 L 722.269531 560.6875 L 722.269531 616.136719 L 777.652344 616.136719 Z M 876.136719 688.03125 L 863.71875 688.03125 C 855.984375 688.03125 849.679688 694.339844 849.679688 702.074219 L 849.679688 743.480469 L 722.269531 743.480469 L 722.269531 688.03125 L 835.636719 688.03125 C 843.375 688.03125 849.679688 681.726562 849.679688 673.992188 L 849.679688 488.730469 L 664.351562 488.730469 C 656.617188 488.730469 650.308594 495.035156 650.308594 502.769531 L 650.308594 743.480469 L 594.863281 743.480469 L 594.863281 488.664062 L 636.269531 488.664062 C 644.003906 488.664062 650.308594 482.359375 650.308594 474.625 L 650.308594 433.28125 L 905.128906 433.28125 L 905.128906 688.03125 Z M 876.136719 688.03125 " fill-opacity="1" fill-rule="evenodd"/></g><g transform="matrix(1, 0, 0, 1, 532, 761)"><g clip-path="url(#c0aad2b359)"><g fill="#000000" fill-opacity="0.302"><g transform="translate(7.380767, 224.195911)"><g><path d="M 7.75 -23.9375 L 87.296875 -129.40625 L 87.296875 -129.84375 L 9.96875 -129.84375 L 9.96875 -155.109375 L 123.421875 -155.109375 L 123.421875 -131.171875 L 43.875 -25.703125 L 43.875 -25.265625 L 123.421875 -25.265625 L 123.421875 0 L 7.75 0 Z M 7.75 -23.9375 "/></g></g></g><g fill="#000000" fill-opacity="0.302"><g transform="translate(141.435702, 224.195911)"><g><path d="M 57.828125 -155.109375 L 85.3125 -155.109375 L 142.03125 0 L 111.453125 0 L 98.828125 -34.34375 L 44.3125 -34.34375 L 31.6875 0 L 1.109375 0 Z M 92.171875 -59.15625 L 71.5625 -118.09375 L 71.125 -118.09375 L 51.1875 -59.15625 Z M 92.171875 -59.15625 "/></g></g></g><g fill="#000000" fill-opacity="0.302"><g transform="translate(287.455892, 224.195911)"><g><path d="M 14.40625 -155.109375 L 113.671875 -155.109375 L 140.265625 -128.515625 L 140.265625 -26.59375 L 113.671875 0 L 14.40625 0 Z M 98.828125 -25.703125 L 110.125 -37 L 110.125 -118.09375 L 98.828125 -129.40625 L 44.53125 -129.40625 L 44.53125 -25.703125 Z M 98.828125 -25.703125 "/></g></g></g><g fill="#000000" fill-opacity="0.502"><g transform="translate(4.543336, 221.979075)"><g><path d="M 7.75 -23.9375 L 87.296875 -129.40625 L 87.296875 -129.84375 L 9.96875 -129.84375 L 9.96875 -155.109375 L 123.421875 -155.109375 L 123.421875 -131.171875 L 43.875 -25.703125 L 43.875 -25.265625 L 123.421875 -25.265625 L 123.421875 0 L 7.75 0 Z M 7.75 -23.9375 "/></g></g></g><g fill="#000000" fill-opacity="0.502"><g transform="translate(138.598271, 221.979075)"><g><path d="M 57.828125 -155.109375 L 85.3125 -155.109375 L 142.03125 0 L 111.453125 0 L 98.828125 -34.34375 L 44.3125 -34.34375 L 31.6875 0 L 1.109375 0 Z M 92.171875 -59.15625 L 71.5625 -118.09375 L 71.125 -118.09375 L 51.1875 -59.15625 Z M 92.171875 -59.15625 "/></g></g></g><g fill="#000000" fill-opacity="0.502"><g transform="translate(284.618461, 221.979075)"><g><path d="M 14.40625 -155.109375 L 113.671875 -155.109375 L 140.265625 -128.515625 L 140.265625 -26.59375 L 113.671875 0 L 14.40625 0 Z M 98.828125 -25.703125 L 110.125 -37 L 110.125 -118.09375 L 98.828125 -129.40625 L 44.53125 -129.40625 L 44.53125 -25.703125 Z M 98.828125 -25.703125 "/></g></g></g><g fill="#0a0a0a" fill-opacity="1"><g transform="translate(1.705905, 219.76224)"><g><path d="M 7.75 -23.9375 L 87.296875 -129.40625 L 87.296875 -129.84375 L 9.96875 -129.84375 L 9.96875 -155.109375 L 123.421875 -155.109375 L 123.421875 -131.171875 L 43.875 -25.703125 L 43.875 -25.265625 L 123.421875 -25.265625 L 123.421875 0 L 7.75 0 Z M 7.75 -23.9375 "/></g></g></g><g fill="#0a0a0a" fill-opacity="1"><g transform="translate(135.76084, 219.76224)"><g><path d="M 57.828125 -155.109375 L 85.3125 -155.109375 L 142.03125 0 L 111.453125 0 L 98.828125 -34.34375 L 44.3125 -34.34375 L 31.6875 0 L 1.109375 0 Z M 92.171875 -59.15625 L 71.5625 -118.09375 L 71.125 -118.09375 L 51.1875 -59.15625 Z M 92.171875 -59.15625 "/></g></g></g><g fill="#0a0a0a" fill-opacity="1"><g transform="translate(281.78103, 219.76224)"><g><path d="M 14.40625 -155.109375 L 113.671875 -155.109375 L 140.265625 -128.515625 L 140.265625 -26.59375 L 113.671875 0 L 14.40625 0 Z M 98.828125 -25.703125 L 110.125 -37 L 110.125 -118.09375 L 98.828125 -129.40625 L 44.53125 -129.40625 L 44.53125 -25.703125 Z M 98.828125 -25.703125 "/></g></g></g></g></g><g transform="matrix(1, 0, 0, 1, 521, 1000)"><g clip-path="url(#5a18d44f07)"><g fill="#0a0a0a" fill-opacity="1"><g transform="translate(2.945097, 96.028778)"><g><path d="M 6.890625 -59.78125 C 6.890625 -61.039062 7.285156 -61.96875 8.078125 -62.5625 C 8.878906 -63.164062 9.710938 -63.46875 10.578125 -63.46875 C 11.503906 -63.46875 12.367188 -63.164062 13.171875 -62.5625 C 13.972656 -61.96875 14.375 -61.039062 14.375 -59.78125 L 14.375 -3.5 C 14.375 -2.363281 13.972656 -1.492188 13.171875 -0.890625 C 12.367188 -0.296875 11.503906 0 10.578125 0 C 9.648438 0 8.800781 -0.28125 8.03125 -0.84375 C 7.269531 -1.414062 6.890625 -2.300781 6.890625 -3.5 Z M 6.890625 -59.78125 "/></g></g></g><g fill="#0a0a0a" fill-opacity="1"><g transform="translate(28.187147, 96.028778)"><g><path d="M 48.296875 -29.140625 C 48.296875 -32.203125 47.5625 -34.894531 46.09375 -37.21875 C 44.632812 -39.550781 42.738281 -41.378906 40.40625 -42.703125 C 38.082031 -44.035156 35.554688 -44.703125 32.828125 -44.703125 C 29.640625 -44.703125 26.613281 -43.882812 23.75 -42.25 C 20.882812 -40.625 18.554688 -38.398438 16.765625 -35.578125 C 14.972656 -32.753906 14.078125 -29.507812 14.078125 -25.84375 L 14.078125 -3.5 C 14.078125 -1.164062 12.878906 0 10.484375 0 C 9.347656 0 8.429688 -0.3125 7.734375 -0.9375 C 7.035156 -1.570312 6.6875 -2.425781 6.6875 -3.5 L 6.6875 -47 C 6.6875 -48.132812 7.066406 -49 7.828125 -49.59375 C 8.597656 -50.195312 9.414062 -50.5 10.28125 -50.5 C 11.207031 -50.5 12.035156 -50.195312 12.765625 -49.59375 C 13.503906 -49 13.875 -48.101562 13.875 -46.90625 L 13.875 -41.109375 C 15.664062 -44.773438 18.320312 -47.421875 21.84375 -49.046875 C 25.375 -50.679688 29.070312 -51.5 32.9375 -51.5 C 36.789062 -51.5 40.445312 -50.632812 43.90625 -48.90625 C 47.363281 -47.175781 50.175781 -44.644531 52.34375 -41.3125 C 54.507812 -37.988281 55.59375 -33.929688 55.59375 -29.140625 L 55.59375 -3.5 C 55.59375 -1.164062 54.394531 0 52 0 C 50.925781 0 50.039062 -0.3125 49.34375 -0.9375 C 48.644531 -1.570312 48.296875 -2.425781 48.296875 -3.5 Z M 48.296875 -29.140625 "/></g></g></g><g fill="#0a0a0a" fill-opacity="1"><g transform="translate(95.830406, 96.028778)"><g><path d="M 29.34375 -51.390625 C 32.664062 -51.390625 35.820312 -50.707031 38.8125 -49.34375 C 41.8125 -47.976562 44.039062 -45.96875 45.5 -43.3125 L 45.5 -63.171875 C 45.5 -64.304688 45.878906 -65.171875 46.640625 -65.765625 C 47.410156 -66.367188 48.265625 -66.671875 49.203125 -66.671875 C 50.128906 -66.671875 50.957031 -66.367188 51.6875 -65.765625 C 52.425781 -65.171875 52.796875 -64.304688 52.796875 -63.171875 L 52.796875 -3.5 C 52.796875 -1.164062 51.5625 0 49.09375 0 C 46.832031 0 45.703125 -1.164062 45.703125 -3.5 L 45.703125 -7.578125 C 44.046875 -4.523438 41.648438 -2.332031 38.515625 -1 C 35.390625 0.332031 32.332031 1 29.34375 1 C 24.75 1 20.503906 -0.015625 16.609375 -2.046875 C 12.722656 -4.078125 9.613281 -7.085938 7.28125 -11.078125 C 4.957031 -15.066406 3.796875 -19.921875 3.796875 -25.640625 C 3.796875 -28.171875 4.226562 -30.898438 5.09375 -33.828125 C 5.957031 -36.753906 7.367188 -39.566406 9.328125 -42.265625 C 11.296875 -44.960938 13.910156 -47.15625 17.171875 -48.84375 C 20.429688 -50.539062 24.488281 -51.390625 29.34375 -51.390625 Z M 29.9375 -5.890625 C 32.800781 -6.085938 35.410156 -6.800781 37.765625 -8.03125 C 40.128906 -9.257812 42.007812 -10.988281 43.40625 -13.21875 C 44.800781 -15.445312 45.5 -18.125 45.5 -21.25 L 45.5 -29.140625 C 45.5 -32.066406 44.800781 -34.660156 43.40625 -36.921875 C 42.007812 -39.179688 40.128906 -40.976562 37.765625 -42.3125 C 35.410156 -43.644531 32.703125 -44.378906 29.640625 -44.515625 C 25.910156 -44.515625 22.847656 -43.863281 20.453125 -42.5625 C 18.054688 -41.269531 16.175781 -39.640625 14.8125 -37.671875 C 13.457031 -35.710938 12.492188 -33.664062 11.921875 -31.53125 C 11.359375 -29.40625 11.078125 -27.546875 11.078125 -25.953125 C 11.078125 -22.085938 11.707031 -18.859375 12.96875 -16.265625 C 14.238281 -13.671875 15.851562 -11.625 17.8125 -10.125 C 19.769531 -8.632812 21.832031 -7.554688 24 -6.890625 C 26.164062 -6.222656 28.144531 -5.890625 29.9375 -5.890625 Z M 29.9375 -5.890625 "/></g></g></g><g fill="#0a0a0a" fill-opacity="1"><g transform="translate(160.680164, 96.028778)"><g><path d="M 13.765625 -21.359375 C 13.765625 -18.296875 14.492188 -15.597656 15.953125 -13.265625 C 17.421875 -10.941406 19.335938 -9.113281 21.703125 -7.78125 C 24.066406 -6.445312 26.578125 -5.78125 29.234375 -5.78125 C 32.492188 -5.78125 35.535156 -6.59375 38.359375 -8.21875 C 41.191406 -9.851562 43.503906 -12.101562 45.296875 -14.96875 C 47.097656 -17.832031 48 -21.0625 48 -24.65625 L 48 -48 C 48 -50.332031 49.195312 -51.5 51.59375 -51.5 C 52.726562 -51.5 53.644531 -51.195312 54.34375 -50.59375 C 55.039062 -50 55.390625 -49.132812 55.390625 -48 L 55.390625 -3.5 C 55.390625 -2.363281 55.019531 -1.492188 54.28125 -0.890625 C 53.550781 -0.296875 52.722656 0 51.796875 0 C 50.929688 0 50.113281 -0.296875 49.34375 -0.890625 C 48.582031 -1.492188 48.203125 -2.394531 48.203125 -3.59375 L 48.203125 -9.484375 C 46.398438 -5.816406 43.753906 -3.148438 40.265625 -1.484375 C 36.773438 0.171875 33.066406 1 29.140625 1 C 25.285156 1 21.625 0.132812 18.15625 -1.59375 C 14.695312 -3.320312 11.882812 -5.847656 9.71875 -9.171875 C 7.5625 -12.503906 6.484375 -16.566406 6.484375 -21.359375 L 6.484375 -48 C 6.484375 -50.332031 7.679688 -51.5 10.078125 -51.5 C 11.210938 -51.5 12.109375 -51.195312 12.765625 -50.59375 C 13.429688 -50 13.765625 -49.132812 13.765625 -48 Z M 13.765625 -21.359375 "/></g></g></g><g fill="#0a0a0a" fill-opacity="1"><g transform="translate(228.024108, 96.028778)"><g><path d="M 2.796875 -11.28125 C 2.523438 -12.34375 2.671875 -13.238281 3.234375 -13.96875 C 3.804688 -14.695312 4.554688 -15.160156 5.484375 -15.359375 C 6.421875 -15.566406 7.320312 -15.46875 8.1875 -15.0625 C 9.050781 -14.664062 9.582031 -13.835938 9.78125 -12.578125 C 10.113281 -11.109375 11.09375 -9.84375 12.71875 -8.78125 C 14.351562 -7.71875 16.347656 -6.898438 18.703125 -6.328125 C 21.066406 -5.765625 23.445312 -5.484375 25.84375 -5.484375 C 27.039062 -5.484375 28.503906 -5.648438 30.234375 -5.984375 C 31.960938 -6.316406 33.660156 -6.847656 35.328125 -7.578125 C 36.992188 -8.316406 38.390625 -9.285156 39.515625 -10.484375 C 40.648438 -11.679688 41.21875 -13.144531 41.21875 -14.875 C 41.21875 -17 40.46875 -18.539062 38.96875 -19.5 C 37.46875 -20.46875 35.535156 -21.101562 33.171875 -21.40625 C 30.816406 -21.707031 28.273438 -21.957031 25.546875 -22.15625 C 22.890625 -22.414062 20.226562 -22.726562 17.5625 -23.09375 C 14.90625 -23.46875 12.492188 -24.101562 10.328125 -25 C 8.160156 -25.894531 6.425781 -27.238281 5.125 -29.03125 C 3.832031 -30.832031 3.1875 -33.265625 3.1875 -36.328125 C 3.1875 -38.984375 3.851562 -41.273438 5.1875 -43.203125 C 6.519531 -45.140625 8.28125 -46.722656 10.46875 -47.953125 C 12.664062 -49.179688 15.03125 -50.078125 17.5625 -50.640625 C 20.09375 -51.210938 22.554688 -51.5 24.953125 -51.5 C 27.546875 -51.5 30.304688 -51.28125 33.234375 -50.84375 C 36.160156 -50.414062 38.867188 -49.46875 41.359375 -48 C 43.859375 -46.539062 45.671875 -44.3125 46.796875 -41.3125 C 47.128906 -40.1875 47.046875 -39.238281 46.546875 -38.46875 C 46.054688 -37.707031 45.359375 -37.175781 44.453125 -36.875 C 43.554688 -36.570312 42.675781 -36.570312 41.8125 -36.875 C 40.945312 -37.175781 40.347656 -37.789062 40.015625 -38.71875 C 39.285156 -40.644531 38.003906 -42.039062 36.171875 -42.90625 C 34.347656 -43.769531 32.40625 -44.316406 30.34375 -44.546875 C 28.28125 -44.785156 26.484375 -44.90625 24.953125 -44.90625 C 23.023438 -44.90625 20.925781 -44.601562 18.65625 -44 C 16.394531 -43.40625 14.46875 -42.472656 12.875 -41.203125 C 11.28125 -39.941406 10.484375 -38.28125 10.484375 -36.21875 C 10.484375 -34.09375 11.210938 -32.582031 12.671875 -31.6875 C 14.140625 -30.789062 16.035156 -30.222656 18.359375 -29.984375 C 20.691406 -29.753906 23.1875 -29.539062 25.84375 -29.34375 C 28.570312 -29.070312 31.28125 -28.753906 33.96875 -28.390625 C 36.664062 -28.023438 39.113281 -27.375 41.3125 -26.4375 C 43.507812 -25.507812 45.253906 -24.128906 46.546875 -22.296875 C 47.847656 -20.472656 48.5 -18 48.5 -14.875 C 48.5 -11.738281 47.71875 -9.140625 46.15625 -7.078125 C 44.59375 -5.015625 42.628906 -3.398438 40.265625 -2.234375 C 37.898438 -1.078125 35.421875 -0.25 32.828125 0.25 C 30.234375 0.75 27.90625 1 25.84375 1 C 23.78125 1 21.519531 0.816406 19.0625 0.453125 C 16.601562 0.0859375 14.222656 -0.523438 11.921875 -1.390625 C 9.628906 -2.253906 7.664062 -3.5 6.03125 -5.125 C 4.40625 -6.757812 3.328125 -8.8125 2.796875 -11.28125 Z M 2.796875 -11.28125 "/></g></g></g><g fill="#0a0a0a" fill-opacity="1"><g transform="translate(284.692909, 96.028778)"><g><path d="M 28.640625 -50.5 C 30.171875 -50.5 31.1875 -50 31.6875 -49 C 32.1875 -48 32.1875 -46.984375 31.6875 -45.953125 C 31.1875 -44.921875 30.171875 -44.40625 28.640625 -44.40625 L 17.765625 -44.40625 L 17.765625 -17.265625 C 17.765625 -15.398438 17.929688 -13.566406 18.265625 -11.765625 C 18.597656 -9.972656 19.3125 -8.492188 20.40625 -7.328125 C 21.507812 -6.171875 23.191406 -5.59375 25.453125 -5.59375 C 26.179688 -5.59375 27.023438 -5.707031 27.984375 -5.9375 C 28.953125 -6.164062 29.671875 -6.414062 30.140625 -6.6875 C 31.203125 -7.28125 32.148438 -7.425781 32.984375 -7.125 C 33.816406 -6.832031 34.445312 -6.300781 34.875 -5.53125 C 35.3125 -4.769531 35.410156 -3.921875 35.171875 -2.984375 C 34.941406 -2.054688 34.257812 -1.296875 33.125 -0.703125 C 31.863281 -0.0351562 30.597656 0.410156 29.328125 0.640625 C 28.066406 0.878906 26.773438 1 25.453125 1 C 21.453125 1 18.390625 0.132812 16.265625 -1.59375 C 14.140625 -3.320312 12.660156 -5.582031 11.828125 -8.375 C 10.992188 -11.175781 10.578125 -14.140625 10.578125 -17.265625 L 10.578125 -44.40625 L 3.984375 -44.40625 C 2.460938 -44.40625 1.453125 -44.921875 0.953125 -45.953125 C 0.453125 -46.984375 0.46875 -48 1 -49 C 1.53125 -50 2.523438 -50.5 3.984375 -50.5 L 10.578125 -50.5 L 10.578125 -62.375 C 10.578125 -63.570312 10.941406 -64.46875 11.671875 -65.0625 C 12.410156 -65.664062 13.242188 -65.96875 14.171875 -65.96875 C 15.097656 -65.96875 15.925781 -65.664062 16.65625 -65.0625 C 17.394531 -64.46875 17.765625 -63.570312 17.765625 -62.375 L 17.765625 -50.5 Z M 28.640625 -50.5 "/></g></g></g><g fill="#0a0a0a" fill-opacity="1"><g transform="translate(326.396595, 96.028778)"><g><path d="M 13.46875 -43.015625 C 15.070312 -46.335938 17.234375 -48.582031 19.953125 -49.75 C 22.679688 -50.914062 25.476562 -51.5 28.34375 -51.5 C 29.46875 -51.5 30.378906 -51.195312 31.078125 -50.59375 C 31.785156 -50 32.140625 -49.132812 32.140625 -48 C 32.140625 -46.9375 31.785156 -46.101562 31.078125 -45.5 C 30.378906 -44.90625 29.46875 -44.609375 28.34375 -44.609375 C 24.945312 -44.609375 22.164062 -43.789062 20 -42.15625 C 17.84375 -40.53125 16.25 -38.335938 15.21875 -35.578125 C 14.1875 -32.816406 13.671875 -29.738281 13.671875 -26.34375 L 13.671875 -3.5 C 13.671875 -2.425781 13.304688 -1.570312 12.578125 -0.9375 C 11.847656 -0.3125 11.015625 0 10.078125 0 C 9.015625 0 8.132812 -0.3125 7.4375 -0.9375 C 6.738281 -1.570312 6.390625 -2.425781 6.390625 -3.5 L 6.390625 -47 C 6.390625 -48.132812 6.785156 -49 7.578125 -49.59375 C 8.378906 -50.195312 9.210938 -50.5 10.078125 -50.5 C 10.941406 -50.5 11.722656 -50.195312 12.421875 -49.59375 C 13.117188 -49 13.46875 -48.132812 13.46875 -47 Z M 13.46875 -43.015625 "/></g></g></g><g fill="#0a0a0a" fill-opacity="1"><g transform="translate(363.311453, 96.028778)"><g><path d="M 1.390625 -45.5 C 0.796875 -46.832031 0.960938 -48 1.890625 -49 C 2.828125 -50 3.894531 -50.5 5.09375 -50.5 C 5.6875 -50.5 6.265625 -50.332031 6.828125 -50 C 7.398438 -49.664062 7.851562 -49.132812 8.1875 -48.40625 L 26.9375 -10.875 L 45.5 -48.5 C 46.164062 -49.832031 47.195312 -50.5 48.59375 -50.5 C 49.726562 -50.5 50.757812 -50.046875 51.6875 -49.140625 C 52.625 -48.242188 52.828125 -47.132812 52.296875 -45.8125 L 20.75 16.859375 C 20.15625 18.054688 19.390625 18.820312 18.453125 19.15625 C 17.523438 19.488281 16.628906 19.488281 15.765625 19.15625 C 14.898438 18.820312 14.265625 18.238281 13.859375 17.40625 C 13.460938 16.582031 13.5 15.570312 13.96875 14.375 L 22.75 -3.5 Z M 1.390625 -45.5 "/></g></g></g></g></g></svg>